<svg width="1469" height="452" viewBox="0 0 1469 452" fill="none" xmlns="http://www.w3.org/2000/svg">
<g clip-path="url('#clip0_11_23')">
<ellipse cx="1175.97" cy="193.309" rx="16.1948" ry="16.1948" transform="rotate(46.6695 1175.97 193.309)" fill="#1E1E1E"></ellipse>
<ellipse cx="1253.62" cy="280.858" rx="16.1948" ry="16.1948" transform="rotate(46.6695 1253.62 280.858)" fill="#1E1E1E"></ellipse>
<path d="M1110.39 279.91C1110.39 279.91 1132.24 319.612 1174.01 275.145" stroke="black" stroke-width="18"></path>
<path d="M1165.91 338.754C1165.91 338.754 1127.54 314.631 1174.37 275.521" stroke="black" stroke-width="18"></path>
<path d="M1039.76 260.091C990.309 253.933 973.837 18.6916 1143.67 131.168" stroke="black" stroke-width="18"></path>
<path d="M1319.21 326.582C1335.15 408.368 1316.07 442.264 1206.69 429.417" stroke="black" stroke-width="18"></path>
<path d="M1251.18 167.171C1414.84 -27.1829 1283.44 -25.788 1196.54 130.75" stroke="black" stroke-width="18"></path>
<path d="M1286.45 217.46C1500.53 64.6834 1507.95 180.234 1314.13 260.126" stroke="black" stroke-width="18"></path>
<path d="M1168.2 274.672C1167.94 277.65 1170.33 280.189 1173.32 280.103L1188.18 279.679C1192.5 279.555 1194.64 274.39 1191.67 271.25L1178.1 256.865C1175.14 253.725 1169.86 255.562 1169.49 259.862L1168.2 274.672Z" fill="#1E1E1E"></path>
<path d="M553.6 313H614.4V324.2H590.88V425H577.12V324.2H553.6V313ZM678.783 425L661.183 381.96C660.116 382.067 659.049 382.12 657.983 382.12C656.916 382.12 655.796 382.12 654.623 382.12H644.223V425H630.463V313H654.623C663.156 313 669.983 314.12 675.103 316.36C680.329 318.493 684.116 322.12 686.463 327.24C688.916 332.253 690.143 339.027 690.143 347.56C690.143 356.307 688.863 363.24 686.303 368.36C683.849 373.373 679.903 376.947 674.463 379.08L692.863 425H678.783ZM676.223 351.08V344.04C676.223 341.16 676.063 338.493 675.743 336.04C675.529 333.587 674.783 331.507 673.503 329.8C672.223 328.093 670.089 326.76 667.103 325.8C664.223 324.84 660.116 324.36 654.783 324.36H644.223V370.76H654.783C660.116 370.76 664.223 370.28 667.103 369.32C670.089 368.36 672.223 367.027 673.503 365.32C674.783 363.613 675.529 361.533 675.743 359.08C676.063 356.627 676.223 353.96 676.223 351.08ZM708.069 425L734.629 313H757.989L784.549 425H770.469L763.909 396.68H728.709L722.149 425H708.069ZM746.789 323.24H745.829L731.269 385.48H761.189L746.789 323.24ZM804.525 313H836.525C845.378 313 852.205 313.96 857.005 315.88C861.912 317.693 865.378 320.787 867.405 325.16C869.538 329.427 870.818 335.187 871.245 342.44C871.778 349.587 872.045 358.493 872.045 369.16C872.045 379.827 871.778 388.787 871.245 396.04C870.818 403.187 869.538 408.893 867.405 413.16C865.378 417.32 861.912 420.36 857.005 422.28C852.205 424.093 845.378 425 836.525 425H804.525V313ZM818.285 324.52V413.16H836.685C842.018 413.16 846.125 412.68 849.005 411.72C851.992 410.653 854.125 409.213 855.405 407.4C856.685 405.48 857.432 403.24 857.645 400.68C857.965 398.12 858.125 395.293 858.125 392.2V345.48C858.125 342.387 857.965 339.56 857.645 337C857.432 334.44 856.685 332.253 855.405 330.44C854.125 328.52 851.992 327.08 849.005 326.12C846.125 325.053 842.018 324.52 836.685 324.52H818.285ZM912.191 313V425H898.431V313H912.191ZM961.091 313L993.251 406.44H994.211V313H1007.65V425H987.491L955.331 331.56H954.371V425H940.931V313H961.091ZM1097.52 368.2V420.84C1095.39 422.013 1092.67 423.08 1089.36 424.04C1086.16 424.893 1082.75 425.587 1079.12 426.12C1075.6 426.653 1072.35 426.92 1069.36 426.92C1060.61 426.92 1053.79 425.907 1048.88 423.88C1044.08 421.853 1040.61 418.6 1038.48 414.12C1036.45 409.533 1035.17 403.56 1034.64 396.2C1034.21 388.84 1034 379.827 1034 369.16C1034 358.493 1034.21 349.48 1034.64 342.12C1035.17 334.653 1036.45 328.68 1038.48 324.2C1040.61 319.613 1044.08 316.307 1048.88 314.28C1053.79 312.147 1060.61 311.08 1069.36 311.08C1073.09 311.08 1077.15 311.4 1081.52 312.04C1086 312.68 1089.95 313.533 1093.36 314.6L1090.96 325C1088.93 324.467 1085.84 323.933 1081.68 323.4C1077.63 322.76 1073.57 322.44 1069.52 322.44C1064.08 322.44 1059.87 322.973 1056.88 324.04C1054 325 1051.92 326.44 1050.64 328.36C1049.36 330.173 1048.56 332.36 1048.24 334.92C1048.03 337.48 1047.92 340.307 1047.92 343.4V394.12C1047.92 397.213 1048.03 400.093 1048.24 402.76C1048.56 405.32 1049.36 407.56 1050.64 409.48C1051.92 411.4 1054 412.893 1056.88 413.96C1059.87 415.027 1064.08 415.56 1069.52 415.56C1072.61 415.56 1075.33 415.453 1077.68 415.24C1080.03 414.92 1082.37 414.547 1084.72 414.12V377.8H1069.52V368.2H1097.52Z" fill="#C5005F"></path>
<mask id="path-11-outside-1_11_23" maskUnits="userSpaceOnUse" x="15" y="103" width="968" height="171" fill="black">
<rect fill="white" x="15" y="103" width="968" height="171"></rect>
<path d="M68.08 105.24C71.1467 105.24 75.5933 105.547 81.42 106.16C87.2467 106.62 92.7667 107.693 97.98 109.38L94.53 124.33C91.6167 123.563 87.9367 122.95 83.49 122.49C79.1967 121.877 74.1367 121.57 68.31 121.57C60.49 121.57 54.4333 122.337 50.14 123.87C46 125.403 43.01 127.55 41.17 130.31C39.33 133.07 38.18 136.367 37.72 140.2C37.4133 143.88 37.26 147.943 37.26 152.39V224.61C37.26 229.057 37.4133 233.197 37.72 237.03C38.18 240.71 39.33 243.93 41.17 246.69C43.01 249.45 46 251.597 50.14 253.13C54.4333 254.663 60.49 255.43 68.31 255.43C74.1367 255.43 79.1967 255.123 83.49 254.51C87.7833 253.743 92.1533 252.823 96.6 251.75L100.97 265.32C97.4433 266.853 92.69 268.31 86.71 269.69C80.73 271.07 74.52 271.76 68.08 271.76C55.5067 271.76 45.6933 270.303 38.64 267.39C31.74 264.477 26.7567 259.8 23.69 253.36C20.7767 246.767 18.9367 238.18 18.17 227.6C17.5567 217.02 17.25 204.063 17.25 188.73C17.25 173.397 17.5567 160.44 18.17 149.86C18.9367 139.127 20.7767 130.54 23.69 124.1C26.7567 117.507 31.74 112.753 38.64 109.84C45.6933 106.773 55.5067 105.24 68.08 105.24ZM225.519 108V269H205.739V196.32H150.539V269H130.759V108H150.539V180.22H205.739V108H225.519ZM286.652 108V269H266.872V108H286.652ZM327.966 108H362.696C374.962 108 384.776 109.687 392.136 113.06C399.649 116.28 405.092 121.723 408.466 129.39C411.992 136.903 413.756 147.1 413.756 159.98C413.756 172.707 411.992 182.903 408.466 190.57C405.092 198.237 399.649 203.757 392.136 207.13C384.776 210.35 374.962 211.96 362.696 211.96H347.746V269H327.966V108ZM393.746 165.5V154.46C393.746 150.013 393.516 145.95 393.056 142.27C392.749 138.59 391.676 135.447 389.836 132.84C387.996 130.08 384.929 128.01 380.636 126.63C376.496 125.097 370.592 124.33 362.926 124.33H347.746V195.63H362.926C370.592 195.63 376.496 194.94 380.636 193.56C384.929 192.027 387.996 189.957 389.836 187.35C391.676 184.59 392.749 181.37 393.056 177.69C393.516 174.01 393.746 169.947 393.746 165.5ZM497.866 229.9L467.506 139.51H466.126L463.136 269H444.046L448.876 108H474.176L507.986 209.66H509.366L543.176 108H568.476L573.306 269H554.216L551.226 139.51H549.846L519.486 229.9H497.866ZM693.27 108H713.05V188.73C713.05 204.063 712.744 217.02 712.13 227.6C711.517 238.18 709.677 246.767 706.61 253.36C703.544 259.8 698.56 264.477 691.66 267.39C684.76 270.303 674.947 271.76 662.22 271.76C649.647 271.76 639.834 270.303 632.78 267.39C625.88 264.477 620.897 259.8 617.83 253.36C614.917 246.767 613.154 238.18 612.54 227.6C611.927 217.02 611.62 204.063 611.62 188.73V108H631.4V224.61C631.4 229.057 631.554 233.12 631.86 236.8C632.32 240.48 633.47 243.7 635.31 246.46C637.15 249.067 640.14 251.137 644.28 252.67C648.574 254.05 654.63 254.74 662.45 254.74C670.117 254.74 676.02 254.05 680.16 252.67C684.454 251.137 687.52 249.067 689.36 246.46C691.2 243.7 692.274 240.48 692.58 236.8C693.04 233.12 693.27 229.057 693.27 224.61V108ZM782.356 108L828.586 242.32H829.966V108H849.286V269H820.306L774.076 134.68H772.696V269H753.376V108H782.356ZM910.392 269H890.612V108H910.392V269ZM958.692 108H979.622L937.302 188.5L979.852 269H958.692L916.372 188.5L958.692 108Z"></path>
</mask>
<path d="M68.08 105.24C71.1467 105.24 75.5933 105.547 81.42 106.16C87.2467 106.62 92.7667 107.693 97.98 109.38L94.53 124.33C91.6167 123.563 87.9367 122.95 83.49 122.49C79.1967 121.877 74.1367 121.57 68.31 121.57C60.49 121.57 54.4333 122.337 50.14 123.87C46 125.403 43.01 127.55 41.17 130.31C39.33 133.07 38.18 136.367 37.72 140.2C37.4133 143.88 37.26 147.943 37.26 152.39V224.61C37.26 229.057 37.4133 233.197 37.72 237.03C38.18 240.71 39.33 243.93 41.17 246.69C43.01 249.45 46 251.597 50.14 253.13C54.4333 254.663 60.49 255.43 68.31 255.43C74.1367 255.43 79.1967 255.123 83.49 254.51C87.7833 253.743 92.1533 252.823 96.6 251.75L100.97 265.32C97.4433 266.853 92.69 268.31 86.71 269.69C80.73 271.07 74.52 271.76 68.08 271.76C55.5067 271.76 45.6933 270.303 38.64 267.39C31.74 264.477 26.7567 259.8 23.69 253.36C20.7767 246.767 18.9367 238.18 18.17 227.6C17.5567 217.02 17.25 204.063 17.25 188.73C17.25 173.397 17.5567 160.44 18.17 149.86C18.9367 139.127 20.7767 130.54 23.69 124.1C26.7567 117.507 31.74 112.753 38.64 109.84C45.6933 106.773 55.5067 105.24 68.08 105.24ZM225.519 108V269H205.739V196.32H150.539V269H130.759V108H150.539V180.22H205.739V108H225.519ZM286.652 108V269H266.872V108H286.652ZM327.966 108H362.696C374.962 108 384.776 109.687 392.136 113.06C399.649 116.28 405.092 121.723 408.466 129.39C411.992 136.903 413.756 147.1 413.756 159.98C413.756 172.707 411.992 182.903 408.466 190.57C405.092 198.237 399.649 203.757 392.136 207.13C384.776 210.35 374.962 211.96 362.696 211.96H347.746V269H327.966V108ZM393.746 165.5V154.46C393.746 150.013 393.516 145.95 393.056 142.27C392.749 138.59 391.676 135.447 389.836 132.84C387.996 130.08 384.929 128.01 380.636 126.63C376.496 125.097 370.592 124.33 362.926 124.33H347.746V195.63H362.926C370.592 195.63 376.496 194.94 380.636 193.56C384.929 192.027 387.996 189.957 389.836 187.35C391.676 184.59 392.749 181.37 393.056 177.69C393.516 174.01 393.746 169.947 393.746 165.5ZM497.866 229.9L467.506 139.51H466.126L463.136 269H444.046L448.876 108H474.176L507.986 209.66H509.366L543.176 108H568.476L573.306 269H554.216L551.226 139.51H549.846L519.486 229.9H497.866ZM693.27 108H713.05V188.73C713.05 204.063 712.744 217.02 712.13 227.6C711.517 238.18 709.677 246.767 706.61 253.36C703.544 259.8 698.56 264.477 691.66 267.39C684.76 270.303 674.947 271.76 662.22 271.76C649.647 271.76 639.834 270.303 632.78 267.39C625.88 264.477 620.897 259.8 617.83 253.36C614.917 246.767 613.154 238.18 612.54 227.6C611.927 217.02 611.62 204.063 611.62 188.73V108H631.4V224.61C631.4 229.057 631.554 233.12 631.86 236.8C632.32 240.48 633.47 243.7 635.31 246.46C637.15 249.067 640.14 251.137 644.28 252.67C648.574 254.05 654.63 254.74 662.45 254.74C670.117 254.74 676.02 254.05 680.16 252.67C684.454 251.137 687.52 249.067 689.36 246.46C691.2 243.7 692.274 240.48 692.58 236.8C693.04 233.12 693.27 229.057 693.27 224.61V108ZM782.356 108L828.586 242.32H829.966V108H849.286V269H820.306L774.076 134.68H772.696V269H753.376V108H782.356ZM910.392 269H890.612V108H910.392V269ZM958.692 108H979.622L937.302 188.5L979.852 269H958.692L916.372 188.5L958.692 108Z" fill="black"></path>
<path d="M81.42 106.16L81.263 107.652L81.2824 107.654L81.3019 107.655L81.42 106.16ZM97.98 109.38L99.4416 109.717L99.751 108.376L98.4417 107.953L97.98 109.38ZM94.53 124.33L94.1483 125.781L95.6438 126.174L95.9916 124.667L94.53 124.33ZM83.49 122.49L83.2779 123.975L83.3067 123.979L83.3357 123.982L83.49 122.49ZM50.14 123.87L49.6355 122.457L49.6272 122.46L49.619 122.463L50.14 123.87ZM41.17 130.31L39.9219 129.478V129.478L41.17 130.31ZM37.72 140.2L36.2307 140.021L36.2274 140.048L36.2252 140.075L37.72 140.2ZM37.72 237.03L36.2248 237.15L36.2274 237.183L36.2316 237.216L37.72 237.03ZM41.17 246.69L39.9219 247.522L41.17 246.69ZM50.14 253.13L49.619 254.537L49.6272 254.54L49.6355 254.543L50.14 253.13ZM83.49 254.51L83.7021 255.995L83.728 255.991L83.7537 255.987L83.49 254.51ZM96.6 251.75L98.0278 251.29L97.6011 249.965L96.248 250.292L96.6 251.75ZM100.97 265.32L101.568 266.696L102.814 266.154L102.398 264.86L100.97 265.32ZM86.71 269.69L86.3727 268.228L86.71 269.69ZM38.64 267.39L38.0565 268.772L38.0674 268.776L38.64 267.39ZM23.69 253.36L22.318 253.966L22.3266 253.986L22.3357 254.005L23.69 253.36ZM18.17 227.6L16.6725 227.687L16.6731 227.698L16.6739 227.708L18.17 227.6ZM18.17 149.86L16.6738 149.753L16.6731 149.763L16.6725 149.773L18.17 149.86ZM23.69 124.1L22.3299 123.467L22.3266 123.475L22.3233 123.482L23.69 124.1ZM38.64 109.84L39.2235 111.222L39.2308 111.219L39.2381 111.216L38.64 109.84ZM68.08 106.74C71.0665 106.74 75.4507 107.04 81.263 107.652L81.577 104.668C75.736 104.053 71.2269 103.74 68.08 103.74V106.74ZM81.3019 107.655C87.0195 108.107 92.4236 109.159 97.5183 110.807L98.4417 107.953C93.1097 106.228 87.4738 105.133 81.5381 104.665L81.3019 107.655ZM96.5184 109.043L93.0684 123.993L95.9916 124.667L99.4416 109.717L96.5184 109.043ZM94.9117 122.879C91.8974 122.086 88.1348 121.462 83.6443 120.998L83.3357 123.982C87.7385 124.438 91.3359 125.041 94.1483 125.781L94.9117 122.879ZM83.7021 121.005C79.3194 120.379 74.1852 120.07 68.31 120.07V123.07C74.0881 123.07 79.074 123.374 83.2779 123.975L83.7021 121.005ZM68.31 120.07C60.4228 120.07 54.1664 120.839 49.6355 122.457L50.6445 125.283C54.7003 123.834 60.5572 123.07 68.31 123.07V120.07ZM49.619 122.463C45.2794 124.071 41.9875 126.38 39.9219 129.478L42.4181 131.142C44.0325 128.72 46.7206 126.736 50.661 125.277L49.619 122.463ZM39.9219 129.478C37.9315 132.464 36.7141 135.993 36.2307 140.021L39.2093 140.379C39.6459 136.741 40.7285 133.676 42.4181 131.142L39.9219 129.478ZM36.2252 140.075C35.9145 143.804 35.76 147.91 35.76 152.39H38.76C38.76 147.977 38.9122 143.956 39.2148 140.325L36.2252 140.075ZM35.76 152.39V224.61H38.76V152.39H35.76ZM35.76 224.61C35.76 229.091 35.9145 233.271 36.2248 237.15L39.2152 236.91C38.9122 233.122 38.76 229.023 38.76 224.61H35.76ZM36.2316 237.216C36.717 241.1 37.9382 244.546 39.9219 247.522L42.4181 245.858C40.7218 243.314 39.643 240.32 39.2084 236.844L36.2316 237.216ZM39.9219 247.522C41.9875 250.62 45.2794 252.929 49.619 254.537L50.661 251.723C46.7206 250.264 44.0325 248.28 42.4181 245.858L39.9219 247.522ZM49.6355 254.543C54.1664 256.161 60.4228 256.93 68.31 256.93V253.93C60.5572 253.93 54.7003 253.166 50.6445 251.717L49.6355 254.543ZM68.31 256.93C74.1852 256.93 79.3194 256.621 83.7021 255.995L83.2779 253.025C79.074 253.626 74.0881 253.93 68.31 253.93V256.93ZM83.7537 255.987C88.078 255.214 92.4775 254.288 96.952 253.208L96.248 250.292C91.8292 251.358 87.4887 252.272 83.2263 253.033L83.7537 255.987ZM95.1722 252.21L99.5422 265.78L102.398 264.86L98.0278 251.29L95.1722 252.21ZM100.372 263.944C96.9638 265.426 92.3094 266.858 86.3727 268.228L87.0473 271.152C93.0706 269.762 97.9229 268.28 101.568 266.696L100.372 263.944ZM86.3727 268.228C80.5086 269.582 74.4121 270.26 68.08 270.26V273.26C74.6279 273.26 80.9514 272.558 87.0473 271.152L86.3727 268.228ZM68.08 270.26C55.5922 270.26 46.0042 268.809 39.2126 266.004L38.0674 268.776C45.3825 271.798 55.4211 273.26 68.08 273.26V270.26ZM39.2235 266.008C32.6435 263.23 27.9445 258.806 25.0443 252.715L22.3357 254.005C25.5688 260.794 30.8365 265.723 38.0565 268.772L39.2235 266.008ZM25.062 252.754C22.2429 246.374 20.4256 237.973 19.6661 227.492L16.6739 227.708C17.4477 238.387 19.3104 247.16 22.318 253.966L25.062 252.754ZM19.6675 227.513C19.0564 216.972 18.75 204.046 18.75 188.73H15.75C15.75 204.081 16.0569 217.068 16.6725 227.687L19.6675 227.513ZM18.75 188.73C18.75 173.414 19.0564 160.488 19.6675 149.947L16.6725 149.773C16.0569 160.392 15.75 173.379 15.75 188.73H18.75ZM19.6662 149.967C20.4261 139.328 22.2441 130.935 25.0567 124.718L22.3233 123.482C19.3092 130.145 17.4472 138.926 16.6738 149.753L19.6662 149.967ZM25.0501 124.733C27.9547 118.488 32.655 113.995 39.2235 111.222L38.0565 108.458C30.825 111.511 25.5587 116.526 22.3299 123.467L25.0501 124.733ZM39.2381 111.216C46.0202 108.267 55.5979 106.74 68.08 106.74V103.74C55.4154 103.74 45.3664 105.28 38.0419 108.464L39.2381 111.216ZM225.519 108H227.019V106.5H225.519V108ZM225.519 269V270.5H227.019V269H225.519ZM205.739 269H204.239V270.5H205.739V269ZM205.739 196.32H207.239V194.82H205.739V196.32ZM150.539 196.32V194.82H149.039V196.32H150.539ZM150.539 269V270.5H152.039V269H150.539ZM130.759 269H129.259V270.5H130.759V269ZM130.759 108V106.5H129.259V108H130.759ZM150.539 108H152.039V106.5H150.539V108ZM150.539 180.22H149.039V181.72H150.539V180.22ZM205.739 180.22V181.72H207.239V180.22H205.739ZM205.739 108V106.5H204.239V108H205.739ZM224.019 108V269H227.019V108H224.019ZM225.519 267.5H205.739V270.5H225.519V267.5ZM207.239 269V196.32H204.239V269H207.239ZM205.739 194.82H150.539V197.82H205.739V194.82ZM149.039 196.32V269H152.039V196.32H149.039ZM150.539 267.5H130.759V270.5H150.539V267.5ZM132.259 269V108H129.259V269H132.259ZM130.759 109.5H150.539V106.5H130.759V109.5ZM149.039 108V180.22H152.039V108H149.039ZM150.539 181.72H205.739V178.72H150.539V181.72ZM207.239 180.22V108H204.239V180.22H207.239ZM205.739 109.5H225.519V106.5H205.739V109.5ZM286.652 108H288.152V106.5H286.652V108ZM286.652 269V270.5H288.152V269H286.652ZM266.872 269H265.372V270.5H266.872V269ZM266.872 108V106.5H265.372V108H266.872ZM285.152 108V269H288.152V108H285.152ZM286.652 267.5H266.872V270.5H286.652V267.5ZM268.372 269V108H265.372V269H268.372ZM266.872 109.5H286.652V106.5H266.872V109.5ZM327.966 108V106.5H326.466V108H327.966ZM392.136 113.06L391.511 114.424L391.528 114.431L391.545 114.439L392.136 113.06ZM408.466 129.39L407.093 129.994L407.1 130.011L407.108 130.027L408.466 129.39ZM408.466 190.57L407.103 189.943L407.098 189.954L407.093 189.966L408.466 190.57ZM392.136 207.13L392.737 208.504L392.743 208.501L392.75 208.498L392.136 207.13ZM347.746 211.96V210.46H346.246V211.96H347.746ZM347.746 269V270.5H349.246V269H347.746ZM327.966 269H326.466V270.5H327.966V269ZM393.056 142.27L391.561 142.395L391.563 142.425L391.567 142.456L393.056 142.27ZM389.836 132.84L388.588 133.672L388.599 133.689L388.61 133.705L389.836 132.84ZM380.636 126.63L380.115 128.037L380.145 128.048L380.177 128.058L380.636 126.63ZM347.746 124.33V122.83H346.246V124.33H347.746ZM347.746 195.63H346.246V197.13H347.746V195.63ZM380.636 193.56L381.11 194.983L381.125 194.978L381.14 194.973L380.636 193.56ZM389.836 187.35L391.061 188.215L391.073 188.199L391.084 188.182L389.836 187.35ZM393.056 177.69L391.567 177.504L391.563 177.535L391.561 177.565L393.056 177.69ZM327.966 109.5H362.696V106.5H327.966V109.5ZM362.696 109.5C374.847 109.5 384.421 111.174 391.511 114.424L392.761 111.696C385.13 108.199 375.077 106.5 362.696 106.5V109.5ZM391.545 114.439C398.699 117.505 403.868 122.666 407.093 129.994L409.839 128.786C406.316 120.781 400.599 115.055 392.727 111.681L391.545 114.439ZM407.108 130.027C410.503 137.262 412.256 147.211 412.256 159.98H415.256C415.256 146.989 413.481 136.545 409.823 128.753L407.108 130.027ZM412.256 159.98C412.256 172.59 410.505 182.547 407.103 189.943L409.828 191.197C413.48 183.259 415.256 172.823 415.256 159.98H412.256ZM407.093 189.966C403.866 197.299 398.69 202.543 391.521 205.762L392.75 208.498C400.608 204.97 406.319 199.174 409.839 191.174L407.093 189.966ZM391.534 205.756C384.437 208.861 374.854 210.46 362.696 210.46V213.46C375.071 213.46 385.114 211.839 392.737 208.504L391.534 205.756ZM362.696 210.46H347.746V213.46H362.696V210.46ZM346.246 211.96V269H349.246V211.96H346.246ZM347.746 267.5H327.966V270.5H347.746V267.5ZM329.466 269V108H326.466V269H329.466ZM395.246 165.5V154.46H392.246V165.5H395.246ZM395.246 154.46C395.246 149.963 395.013 145.836 394.544 142.084L391.567 142.456C392.018 146.064 392.246 150.064 392.246 154.46H395.246ZM394.55 142.145C394.225 138.242 393.078 134.832 391.061 131.975L388.61 133.705C390.273 136.061 391.273 138.938 391.561 142.395L394.55 142.145ZM391.084 132.008C388.998 128.879 385.596 126.649 381.095 125.202L380.177 128.058C384.262 129.371 386.993 131.281 388.588 133.672L391.084 132.008ZM381.157 125.223C376.77 123.599 370.659 122.83 362.926 122.83V125.83C370.526 125.83 376.221 126.594 380.115 128.037L381.157 125.223ZM362.926 122.83H347.746V125.83H362.926V122.83ZM346.246 124.33V195.63H349.246V124.33H346.246ZM347.746 197.13H362.926V194.13H347.746V197.13ZM362.926 197.13C370.651 197.13 376.743 196.439 381.11 194.983L380.161 192.137C376.248 193.441 370.534 194.13 362.926 194.13V197.13ZM381.14 194.973C385.604 193.378 388.981 191.161 391.061 188.215L388.61 186.485C387.01 188.752 384.253 190.675 380.131 192.147L381.14 194.973ZM391.084 188.182C393.08 185.188 394.225 181.718 394.55 177.815L391.561 177.565C391.273 181.022 390.271 183.992 388.588 186.518L391.084 188.182ZM394.544 177.876C395.013 174.124 395.246 169.997 395.246 165.5H392.246C392.246 169.896 392.018 173.896 391.567 177.504L394.544 177.876ZM497.866 229.9L496.444 230.378L496.787 231.4H497.866V229.9ZM467.506 139.51L468.927 139.032L468.584 138.01H467.506V139.51ZM466.126 139.51V138.01H464.66L464.626 139.475L466.126 139.51ZM463.136 269V270.5H464.601L464.635 269.035L463.136 269ZM444.046 269L442.546 268.955L442.5 270.5H444.046V269ZM448.876 108V106.5H447.42L447.376 107.955L448.876 108ZM474.176 108L475.599 107.527L475.257 106.5H474.176V108ZM507.986 209.66L506.562 210.133L506.904 211.16H507.986V209.66ZM509.366 209.66V211.16H510.447L510.789 210.133L509.366 209.66ZM543.176 108V106.5H542.094L541.752 107.527L543.176 108ZM568.476 108L569.975 107.955L569.931 106.5H568.476V108ZM573.306 269V270.5H574.851L574.805 268.955L573.306 269ZM554.216 269L552.716 269.035L552.75 270.5H554.216V269ZM551.226 139.51L552.725 139.475L552.691 138.01H551.226V139.51ZM549.846 139.51V138.01H548.767L548.424 139.032L549.846 139.51ZM519.486 229.9V231.4H520.564L520.907 230.378L519.486 229.9ZM499.287 229.422L468.927 139.032L466.084 139.988L496.444 230.378L499.287 229.422ZM467.506 138.01H466.126V141.01H467.506V138.01ZM464.626 139.475L461.636 268.965L464.635 269.035L467.625 139.545L464.626 139.475ZM463.136 267.5H444.046V270.5H463.136V267.5ZM445.545 269.045L450.375 108.045L447.376 107.955L442.546 268.955L445.545 269.045ZM448.876 109.5H474.176V106.5H448.876V109.5ZM472.752 108.473L506.562 210.133L509.409 209.187L475.599 107.527L472.752 108.473ZM507.986 211.16H509.366V208.16H507.986V211.16ZM510.789 210.133L544.599 108.473L541.752 107.527L507.942 209.187L510.789 210.133ZM543.176 109.5H568.476V106.5H543.176V109.5ZM566.976 108.045L571.806 269.045L574.805 268.955L569.975 107.955L566.976 108.045ZM573.306 267.5H554.216V270.5H573.306V267.5ZM555.715 268.965L552.725 139.475L549.726 139.545L552.716 269.035L555.715 268.965ZM551.226 138.01H549.846V141.01H551.226V138.01ZM548.424 139.032L518.064 229.422L520.907 230.378L551.268 139.988L548.424 139.032ZM519.486 228.4H497.866V231.4H519.486V228.4ZM693.27 108V106.5H691.77V108H693.27ZM713.05 108H714.55V106.5H713.05V108ZM712.13 227.6L713.628 227.687L712.13 227.6ZM706.61 253.36L707.965 254.005L707.97 253.993L706.61 253.36ZM691.66 267.39L692.244 268.772L691.66 267.39ZM632.78 267.39L632.197 268.772L632.208 268.776L632.78 267.39ZM617.83 253.36L616.458 253.966L616.467 253.986L616.476 254.005L617.83 253.36ZM612.54 227.6L611.043 227.687L612.54 227.6ZM611.62 108V106.5H610.12V108H611.62ZM631.4 108H632.9V106.5H631.4V108ZM631.86 236.8L630.365 236.925L630.368 236.955L630.372 236.986L631.86 236.8ZM635.31 246.46L634.062 247.292L634.073 247.309L634.085 247.325L635.31 246.46ZM644.28 252.67L643.759 254.077L643.79 254.088L643.821 254.098L644.28 252.67ZM680.16 252.67L680.635 254.093L680.65 254.088L680.665 254.083L680.16 252.67ZM689.36 246.46L690.586 247.325L690.597 247.309L690.608 247.292L689.36 246.46ZM692.58 236.8L691.092 236.614L691.088 236.645L691.086 236.675L692.58 236.8ZM693.27 109.5H713.05V106.5H693.27V109.5ZM711.55 108V188.73H714.55V108H711.55ZM711.55 188.73C711.55 204.046 711.244 216.972 710.633 227.513L713.628 227.687C714.243 217.068 714.55 204.081 714.55 188.73H711.55ZM710.633 227.513C710.026 237.983 708.209 246.365 705.25 252.727L707.97 253.993C711.145 247.168 713.008 238.377 713.628 227.687L710.633 227.513ZM705.256 252.715C702.356 258.806 697.657 263.23 691.077 266.008L692.244 268.772C699.464 265.723 704.732 260.794 707.965 254.005L705.256 252.715ZM691.077 266.008C684.447 268.807 674.867 270.26 662.22 270.26V273.26C675.027 273.26 685.073 271.799 692.244 268.772L691.077 266.008ZM662.22 270.26C649.733 270.26 640.145 268.809 633.353 266.004L632.208 268.776C639.523 271.798 649.561 273.26 662.22 273.26V270.26ZM633.364 266.008C626.784 263.23 622.085 258.806 619.185 252.715L616.476 254.005C619.709 260.794 624.977 265.723 632.197 268.772L633.364 266.008ZM619.202 252.754C616.387 246.383 614.645 237.99 614.038 227.513L611.043 227.687C611.662 238.37 613.447 247.151 616.458 253.966L619.202 252.754ZM614.038 227.513C613.427 216.972 613.12 204.046 613.12 188.73H610.12C610.12 204.081 610.427 217.068 611.043 227.687L614.038 227.513ZM613.12 188.73V108H610.12V188.73H613.12ZM611.62 109.5H631.4V106.5H611.62V109.5ZM629.9 108V224.61H632.9V108H629.9ZM629.9 224.61C629.9 229.09 630.055 233.196 630.365 236.925L633.355 236.675C633.053 233.044 632.9 229.023 632.9 224.61H629.9ZM630.372 236.986C630.857 240.87 632.078 244.316 634.062 247.292L636.558 245.628C634.862 243.084 633.783 240.09 633.349 236.614L630.372 236.986ZM634.085 247.325C636.155 250.258 639.441 252.477 643.759 254.077L644.801 251.263C640.84 249.796 638.146 247.876 636.536 245.595L634.085 247.325ZM643.821 254.098C648.333 255.548 654.571 256.24 662.45 256.24V253.24C654.69 253.24 648.814 252.552 644.739 251.242L643.821 254.098ZM662.45 256.24C670.176 256.24 676.268 255.549 680.635 254.093L679.686 251.247C675.773 252.551 670.058 253.24 662.45 253.24V256.24ZM680.665 254.083C685.129 252.488 688.506 250.271 690.586 247.325L688.135 245.595C686.535 247.862 683.778 249.785 679.656 251.257L680.665 254.083ZM690.608 247.292C692.605 244.298 693.75 240.828 694.075 236.925L691.086 236.675C690.797 240.132 689.796 243.102 688.112 245.628L690.608 247.292ZM694.069 236.986C694.538 233.234 694.77 229.107 694.77 224.61H691.77C691.77 229.006 691.543 233.006 691.092 236.614L694.069 236.986ZM694.77 224.61V108H691.77V224.61H694.77ZM782.356 108L783.774 107.512L783.426 106.5H782.356V108ZM828.586 242.32L827.167 242.808L827.516 243.82H828.586V242.32ZM829.966 242.32V243.82H831.466V242.32H829.966ZM829.966 108V106.5H828.466V108H829.966ZM849.286 108H850.786V106.5H849.286V108ZM849.286 269V270.5H850.786V269H849.286ZM820.306 269L818.887 269.488L819.236 270.5H820.306V269ZM774.076 134.68L775.494 134.192L775.146 133.18H774.076V134.68ZM772.696 134.68V133.18H771.196V134.68H772.696ZM772.696 269V270.5H774.196V269H772.696ZM753.376 269H751.876V270.5H753.376V269ZM753.376 108V106.5H751.876V108H753.376ZM780.937 108.488L827.167 242.808L830.004 241.832L783.774 107.512L780.937 108.488ZM828.586 243.82H829.966V240.82H828.586V243.82ZM831.466 242.32V108H828.466V242.32H831.466ZM829.966 109.5H849.286V106.5H829.966V109.5ZM847.786 108V269H850.786V108H847.786ZM849.286 267.5H820.306V270.5H849.286V267.5ZM821.724 268.512L775.494 134.192L772.657 135.168L818.887 269.488L821.724 268.512ZM774.076 133.18H772.696V136.18H774.076V133.18ZM771.196 134.68V269H774.196V134.68H771.196ZM772.696 267.5H753.376V270.5H772.696V267.5ZM754.876 269V108H751.876V269H754.876ZM753.376 109.5H782.356V106.5H753.376V109.5ZM910.392 269V270.5H911.892V269H910.392ZM890.612 269H889.112V270.5H890.612V269ZM890.612 108V106.5H889.112V108H890.612ZM910.392 108H911.892V106.5H910.392V108ZM958.692 108V106.5H957.786L957.364 107.302L958.692 108ZM979.622 108L980.95 108.698L982.105 106.5H979.622V108ZM937.302 188.5L935.974 187.802L935.606 188.502L935.976 189.201L937.302 188.5ZM979.852 269V270.5H982.342L981.178 268.299L979.852 269ZM958.692 269L957.364 269.698L957.786 270.5H958.692V269ZM916.372 188.5L915.044 187.802L914.677 188.5L915.044 189.198L916.372 188.5ZM910.392 267.5H890.612V270.5H910.392V267.5ZM892.112 269V108H889.112V269H892.112ZM890.612 109.5H910.392V106.5H890.612V109.5ZM908.892 108V269H911.892V108H908.892ZM958.692 109.5H979.622V106.5H958.692V109.5ZM978.294 107.302L935.974 187.802L938.63 189.198L980.95 108.698L978.294 107.302ZM935.976 189.201L978.526 269.701L981.178 268.299L938.628 187.799L935.976 189.201ZM979.852 267.5H958.692V270.5H979.852V267.5ZM960.02 268.302L917.7 187.802L915.044 189.198L957.364 269.698L960.02 268.302ZM917.7 189.198L960.02 108.698L957.364 107.302L915.044 187.802L917.7 189.198Z" fill="black" mask="url('#path-11-outside-1_11_23')"></path>
<line x1="1469.49" y1="365.098" x2="1462.49" y2="400.098" stroke="black"></line>
</g>
<defs>
<clipPath id="clip0_11_23">
<rect width="1469" height="452" fill="white"></rect>
</clipPath>
</defs>
</svg>
