<svg width="2024" height="1012" viewBox="0 0 2024 1012" fill="none" xmlns="http://www.w3.org/2000/svg">
<g clip-path="url('#clip0_11_23')">
<ellipse cx="1521.97" cy="427.309" rx="16.1948" ry="16.1948" transform="rotate(46.6695 1521.97 427.309)" fill="#1E1E1E"></ellipse>
<ellipse cx="1599.62" cy="514.858" rx="16.1948" ry="16.1948" transform="rotate(46.6695 1599.62 514.858)" fill="#1E1E1E"></ellipse>
<path d="M1456.39 513.91C1456.39 513.91 1478.24 553.612 1520.01 509.145" stroke="black" stroke-width="18"></path>
<path d="M1511.91 572.754C1511.91 572.754 1473.54 548.631 1520.37 509.521" stroke="black" stroke-width="18"></path>
<path d="M1385.76 494.091C1336.31 487.933 1319.84 252.692 1489.67 365.168" stroke="black" stroke-width="18"></path>
<path d="M1665.21 560.582C1681.15 642.368 1662.07 676.264 1552.69 663.417" stroke="black" stroke-width="18"></path>
<path d="M1597.18 401.171C1760.84 206.817 1629.44 208.212 1542.54 364.75" stroke="black" stroke-width="18"></path>
<path d="M1632.45 451.46C1846.53 298.683 1853.95 414.234 1660.13 494.126" stroke="black" stroke-width="18"></path>
<path d="M1514.2 508.672C1513.94 511.65 1516.33 514.189 1519.32 514.103L1534.18 513.679C1538.5 513.555 1540.64 508.39 1537.67 505.25L1524.1 490.865C1521.14 487.725 1515.86 489.561 1515.49 493.862L1514.2 508.672Z" fill="#1E1E1E"></path>
<path d="M899.6 547H960.4V558.2H936.88V659H923.12V558.2H899.6V547ZM1024.78 659L1007.18 615.96C1006.12 616.067 1005.05 616.12 1003.98 616.12C1002.92 616.12 1001.8 616.12 1000.62 616.12H990.223V659H976.463V547H1000.62C1009.16 547 1015.98 548.12 1021.1 550.36C1026.33 552.493 1030.12 556.12 1032.46 561.24C1034.92 566.253 1036.14 573.027 1036.14 581.56C1036.14 590.307 1034.86 597.24 1032.3 602.36C1029.85 607.373 1025.9 610.947 1020.46 613.08L1038.86 659H1024.78ZM1022.22 585.08V578.04C1022.22 575.16 1022.06 572.493 1021.74 570.04C1021.53 567.587 1020.78 565.507 1019.5 563.8C1018.22 562.093 1016.09 560.76 1013.1 559.8C1010.22 558.84 1006.12 558.36 1000.78 558.36H990.223V604.76H1000.78C1006.12 604.76 1010.22 604.28 1013.1 603.32C1016.09 602.36 1018.22 601.027 1019.5 599.32C1020.78 597.613 1021.53 595.533 1021.74 593.08C1022.06 590.627 1022.22 587.96 1022.22 585.08ZM1054.07 659L1080.63 547H1103.99L1130.55 659H1116.47L1109.91 630.68H1074.71L1068.15 659H1054.07ZM1092.79 557.24H1091.83L1077.27 619.48H1107.19L1092.79 557.24ZM1150.53 547H1182.53C1191.38 547 1198.21 547.96 1203.01 549.88C1207.91 551.693 1211.38 554.787 1213.41 559.16C1215.54 563.427 1216.82 569.187 1217.25 576.44C1217.78 583.587 1218.05 592.493 1218.05 603.16C1218.05 613.827 1217.78 622.787 1217.25 630.04C1216.82 637.187 1215.54 642.893 1213.41 647.16C1211.38 651.32 1207.91 654.36 1203.01 656.28C1198.21 658.093 1191.38 659 1182.53 659H1150.53V547ZM1164.29 558.52V647.16H1182.69C1188.02 647.16 1192.13 646.68 1195.01 645.72C1197.99 644.653 1200.13 643.213 1201.41 641.4C1202.69 639.48 1203.43 637.24 1203.65 634.68C1203.97 632.12 1204.13 629.293 1204.13 626.2V579.48C1204.13 576.387 1203.97 573.56 1203.65 571C1203.43 568.44 1202.69 566.253 1201.41 564.44C1200.13 562.52 1197.99 561.08 1195.01 560.12C1192.13 559.053 1188.02 558.52 1182.69 558.52H1164.29ZM1258.19 547V659H1244.43V547H1258.19ZM1307.09 547L1339.25 640.44H1340.21V547H1353.65V659H1333.49L1301.33 565.56H1300.37V659H1286.93V547H1307.09ZM1443.52 602.2V654.84C1441.39 656.013 1438.67 657.08 1435.36 658.04C1432.16 658.893 1428.75 659.587 1425.12 660.12C1421.6 660.653 1418.35 660.92 1415.36 660.92C1406.61 660.92 1399.79 659.907 1394.88 657.88C1390.08 655.853 1386.61 652.6 1384.48 648.12C1382.45 643.533 1381.17 637.56 1380.64 630.2C1380.21 622.84 1380 613.827 1380 603.16C1380 592.493 1380.21 583.48 1380.64 576.12C1381.17 568.653 1382.45 562.68 1384.48 558.2C1386.61 553.613 1390.08 550.307 1394.88 548.28C1399.79 546.147 1406.61 545.08 1415.36 545.08C1419.09 545.08 1423.15 545.4 1427.52 546.04C1432 546.68 1435.95 547.533 1439.36 548.6L1436.96 559C1434.93 558.467 1431.84 557.933 1427.68 557.4C1423.63 556.76 1419.57 556.44 1415.52 556.44C1410.08 556.44 1405.87 556.973 1402.88 558.04C1400 559 1397.92 560.44 1396.64 562.36C1395.36 564.173 1394.56 566.36 1394.24 568.92C1394.03 571.48 1393.92 574.307 1393.92 577.4V628.12C1393.92 631.213 1394.03 634.093 1394.24 636.76C1394.56 639.32 1395.36 641.56 1396.64 643.48C1397.92 645.4 1400 646.893 1402.88 647.96C1405.87 649.027 1410.08 649.56 1415.52 649.56C1418.61 649.56 1421.33 649.453 1423.68 649.24C1426.03 648.92 1428.37 648.547 1430.72 648.12V611.8H1415.52V602.2H1443.52Z" fill="#878684"></path>
<mask id="path-11-outside-1_11_23" maskUnits="userSpaceOnUse" x="361" y="337" width="968" height="171" fill="black">
<rect fill="white" x="361" y="337" width="968" height="171"></rect>
<path d="M414.08 339.24C417.147 339.24 421.593 339.547 427.42 340.16C433.247 340.62 438.767 341.693 443.98 343.38L440.53 358.33C437.617 357.563 433.937 356.95 429.49 356.49C425.197 355.877 420.137 355.57 414.31 355.57C406.49 355.57 400.433 356.337 396.14 357.87C392 359.403 389.01 361.55 387.17 364.31C385.33 367.07 384.18 370.367 383.72 374.2C383.413 377.88 383.26 381.943 383.26 386.39V458.61C383.26 463.057 383.413 467.197 383.72 471.03C384.18 474.71 385.33 477.93 387.17 480.69C389.01 483.45 392 485.597 396.14 487.13C400.433 488.663 406.49 489.43 414.31 489.43C420.137 489.43 425.197 489.123 429.49 488.51C433.783 487.743 438.153 486.823 442.6 485.75L446.97 499.32C443.443 500.853 438.69 502.31 432.71 503.69C426.73 505.07 420.52 505.76 414.08 505.76C401.507 505.76 391.693 504.303 384.64 501.39C377.74 498.477 372.757 493.8 369.69 487.36C366.777 480.767 364.937 472.18 364.17 461.6C363.557 451.02 363.25 438.063 363.25 422.73C363.25 407.397 363.557 394.44 364.17 383.86C364.937 373.127 366.777 364.54 369.69 358.1C372.757 351.507 377.74 346.753 384.64 343.84C391.693 340.773 401.507 339.24 414.08 339.24ZM571.519 342V503H551.739V430.32H496.539V503H476.759V342H496.539V414.22H551.739V342H571.519ZM632.652 342V503H612.872V342H632.652ZM673.966 342H708.696C720.962 342 730.776 343.687 738.136 347.06C745.649 350.28 751.092 355.723 754.466 363.39C757.992 370.903 759.756 381.1 759.756 393.98C759.756 406.707 757.992 416.903 754.466 424.57C751.092 432.237 745.649 437.757 738.136 441.13C730.776 444.35 720.962 445.96 708.696 445.96H693.746V503H673.966V342ZM739.746 399.5V388.46C739.746 384.013 739.516 379.95 739.056 376.27C738.749 372.59 737.676 369.447 735.836 366.84C733.996 364.08 730.929 362.01 726.636 360.63C722.496 359.097 716.592 358.33 708.926 358.33H693.746V429.63H708.926C716.592 429.63 722.496 428.94 726.636 427.56C730.929 426.027 733.996 423.957 735.836 421.35C737.676 418.59 738.749 415.37 739.056 411.69C739.516 408.01 739.746 403.947 739.746 399.5ZM843.866 463.9L813.506 373.51H812.126L809.136 503H790.046L794.876 342H820.176L853.986 443.66H855.366L889.176 342H914.476L919.306 503H900.216L897.226 373.51H895.846L865.486 463.9H843.866ZM1039.27 342H1059.05V422.73C1059.05 438.063 1058.74 451.02 1058.13 461.6C1057.52 472.18 1055.68 480.767 1052.61 487.36C1049.54 493.8 1044.56 498.477 1037.66 501.39C1030.76 504.303 1020.95 505.76 1008.22 505.76C995.647 505.76 985.834 504.303 978.78 501.39C971.88 498.477 966.897 493.8 963.83 487.36C960.917 480.767 959.154 472.18 958.54 461.6C957.927 451.02 957.62 438.063 957.62 422.73V342H977.4V458.61C977.4 463.057 977.554 467.12 977.86 470.8C978.32 474.48 979.47 477.7 981.31 480.46C983.15 483.067 986.14 485.137 990.28 486.67C994.574 488.05 1000.63 488.74 1008.45 488.74C1016.12 488.74 1022.02 488.05 1026.16 486.67C1030.45 485.137 1033.52 483.067 1035.36 480.46C1037.2 477.7 1038.27 474.48 1038.58 470.8C1039.04 467.12 1039.27 463.057 1039.27 458.61V342ZM1128.36 342L1174.59 476.32H1175.97V342H1195.29V503H1166.31L1120.08 368.68H1118.7V503H1099.38V342H1128.36ZM1256.39 503H1236.61V342H1256.39V503ZM1304.69 342H1325.62L1283.3 422.5L1325.85 503H1304.69L1262.37 422.5L1304.69 342Z"></path>
</mask>
<path d="M414.08 339.24C417.147 339.24 421.593 339.547 427.42 340.16C433.247 340.62 438.767 341.693 443.98 343.38L440.53 358.33C437.617 357.563 433.937 356.95 429.49 356.49C425.197 355.877 420.137 355.57 414.31 355.57C406.49 355.57 400.433 356.337 396.14 357.87C392 359.403 389.01 361.55 387.17 364.31C385.33 367.07 384.18 370.367 383.72 374.2C383.413 377.88 383.26 381.943 383.26 386.39V458.61C383.26 463.057 383.413 467.197 383.72 471.03C384.18 474.71 385.33 477.93 387.17 480.69C389.01 483.45 392 485.597 396.14 487.13C400.433 488.663 406.49 489.43 414.31 489.43C420.137 489.43 425.197 489.123 429.49 488.51C433.783 487.743 438.153 486.823 442.6 485.75L446.97 499.32C443.443 500.853 438.69 502.31 432.71 503.69C426.73 505.07 420.52 505.76 414.08 505.76C401.507 505.76 391.693 504.303 384.64 501.39C377.74 498.477 372.757 493.8 369.69 487.36C366.777 480.767 364.937 472.18 364.17 461.6C363.557 451.02 363.25 438.063 363.25 422.73C363.25 407.397 363.557 394.44 364.17 383.86C364.937 373.127 366.777 364.54 369.69 358.1C372.757 351.507 377.74 346.753 384.64 343.84C391.693 340.773 401.507 339.24 414.08 339.24ZM571.519 342V503H551.739V430.32H496.539V503H476.759V342H496.539V414.22H551.739V342H571.519ZM632.652 342V503H612.872V342H632.652ZM673.966 342H708.696C720.962 342 730.776 343.687 738.136 347.06C745.649 350.28 751.092 355.723 754.466 363.39C757.992 370.903 759.756 381.1 759.756 393.98C759.756 406.707 757.992 416.903 754.466 424.57C751.092 432.237 745.649 437.757 738.136 441.13C730.776 444.35 720.962 445.96 708.696 445.96H693.746V503H673.966V342ZM739.746 399.5V388.46C739.746 384.013 739.516 379.95 739.056 376.27C738.749 372.59 737.676 369.447 735.836 366.84C733.996 364.08 730.929 362.01 726.636 360.63C722.496 359.097 716.592 358.33 708.926 358.33H693.746V429.63H708.926C716.592 429.63 722.496 428.94 726.636 427.56C730.929 426.027 733.996 423.957 735.836 421.35C737.676 418.59 738.749 415.37 739.056 411.69C739.516 408.01 739.746 403.947 739.746 399.5ZM843.866 463.9L813.506 373.51H812.126L809.136 503H790.046L794.876 342H820.176L853.986 443.66H855.366L889.176 342H914.476L919.306 503H900.216L897.226 373.51H895.846L865.486 463.9H843.866ZM1039.27 342H1059.05V422.73C1059.05 438.063 1058.74 451.02 1058.13 461.6C1057.52 472.18 1055.68 480.767 1052.61 487.36C1049.54 493.8 1044.56 498.477 1037.66 501.39C1030.76 504.303 1020.95 505.76 1008.22 505.76C995.647 505.76 985.834 504.303 978.78 501.39C971.88 498.477 966.897 493.8 963.83 487.36C960.917 480.767 959.154 472.18 958.54 461.6C957.927 451.02 957.62 438.063 957.62 422.73V342H977.4V458.61C977.4 463.057 977.554 467.12 977.86 470.8C978.32 474.48 979.47 477.7 981.31 480.46C983.15 483.067 986.14 485.137 990.28 486.67C994.574 488.05 1000.63 488.74 1008.45 488.74C1016.12 488.74 1022.02 488.05 1026.16 486.67C1030.45 485.137 1033.52 483.067 1035.36 480.46C1037.2 477.7 1038.27 474.48 1038.58 470.8C1039.04 467.12 1039.27 463.057 1039.27 458.61V342ZM1128.36 342L1174.59 476.32H1175.97V342H1195.29V503H1166.31L1120.08 368.68H1118.7V503H1099.38V342H1128.36ZM1256.39 503H1236.61V342H1256.39V503ZM1304.69 342H1325.62L1283.3 422.5L1325.85 503H1304.69L1262.37 422.5L1304.69 342Z" fill="black"></path>
<path d="M427.42 340.16L427.263 341.652L427.282 341.654L427.302 341.655L427.42 340.16ZM443.98 343.38L445.442 343.717L445.751 342.376L444.442 341.953L443.98 343.38ZM440.53 358.33L440.148 359.781L441.644 360.174L441.992 358.667L440.53 358.33ZM429.49 356.49L429.278 357.975L429.307 357.979L429.336 357.982L429.49 356.49ZM396.14 357.87L395.635 356.457L395.627 356.46L395.619 356.463L396.14 357.87ZM387.17 364.31L385.922 363.478L385.922 363.478L387.17 364.31ZM383.72 374.2L382.231 374.021L382.227 374.048L382.225 374.075L383.72 374.2ZM383.72 471.03L382.225 471.15L382.227 471.183L382.232 471.216L383.72 471.03ZM387.17 480.69L385.922 481.522L385.922 481.522L387.17 480.69ZM396.14 487.13L395.619 488.537L395.627 488.54L395.635 488.543L396.14 487.13ZM429.49 488.51L429.702 489.995L429.728 489.991L429.754 489.987L429.49 488.51ZM442.6 485.75L444.028 485.29L443.601 483.965L442.248 484.292L442.6 485.75ZM446.97 499.32L447.568 500.696L448.814 500.154L448.398 498.86L446.97 499.32ZM432.71 503.69L432.373 502.228L432.373 502.228L432.71 503.69ZM384.64 501.39L384.057 502.772L384.067 502.776L384.64 501.39ZM369.69 487.36L368.318 487.966L368.327 487.986L368.336 488.005L369.69 487.36ZM364.17 461.6L362.673 461.687L362.673 461.698L362.674 461.708L364.17 461.6ZM364.17 383.86L362.674 383.753L362.673 383.763L362.673 383.773L364.17 383.86ZM369.69 358.1L368.33 357.467L368.327 357.475L368.323 357.482L369.69 358.1ZM384.64 343.84L385.223 345.222L385.231 345.219L385.238 345.216L384.64 343.84ZM414.08 340.74C417.066 340.74 421.451 341.04 427.263 341.652L427.577 338.668C421.736 338.053 417.227 337.74 414.08 337.74V340.74ZM427.302 341.655C433.02 342.107 438.424 343.159 443.518 344.807L444.442 341.953C439.11 340.228 433.474 339.133 427.538 338.665L427.302 341.655ZM442.518 343.043L439.068 357.993L441.992 358.667L445.442 343.717L442.518 343.043ZM440.912 356.879C437.897 356.086 434.135 355.462 429.644 354.998L429.336 357.982C433.739 358.438 437.336 359.041 440.148 359.781L440.912 356.879ZM429.702 355.005C425.319 354.379 420.185 354.07 414.31 354.07V357.07C420.088 357.07 425.074 357.374 429.278 357.975L429.702 355.005ZM414.31 354.07C406.423 354.07 400.166 354.839 395.635 356.457L396.645 359.283C400.7 357.834 406.557 357.07 414.31 357.07V354.07ZM395.619 356.463C391.279 358.071 387.987 360.38 385.922 363.478L388.418 365.142C390.033 362.72 392.721 360.736 396.661 359.277L395.619 356.463ZM385.922 363.478C383.932 366.464 382.714 369.993 382.231 374.021L385.209 374.379C385.646 370.741 386.728 367.676 388.418 365.142L385.922 363.478ZM382.225 374.075C381.914 377.804 381.76 381.91 381.76 386.39H384.76C384.76 381.977 384.912 377.956 385.215 374.325L382.225 374.075ZM381.76 386.39V458.61H384.76V386.39H381.76ZM381.76 458.61C381.76 463.091 381.914 467.271 382.225 471.15L385.215 470.91C384.912 467.122 384.76 463.023 384.76 458.61H381.76ZM382.232 471.216C382.717 475.1 383.938 478.546 385.922 481.522L388.418 479.858C386.722 477.314 385.643 474.32 385.208 470.844L382.232 471.216ZM385.922 481.522C387.987 484.62 391.279 486.929 395.619 488.537L396.661 485.723C392.721 484.264 390.033 482.28 388.418 479.858L385.922 481.522ZM395.635 488.543C400.166 490.161 406.423 490.93 414.31 490.93V487.93C406.557 487.93 400.7 487.166 396.645 485.717L395.635 488.543ZM414.31 490.93C420.185 490.93 425.319 490.621 429.702 489.995L429.278 487.025C425.074 487.626 420.088 487.93 414.31 487.93V490.93ZM429.754 489.987C434.078 489.214 438.477 488.288 442.952 487.208L442.248 484.292C437.829 485.358 433.489 486.272 429.226 487.033L429.754 489.987ZM441.172 486.21L445.542 499.78L448.398 498.86L444.028 485.29L441.172 486.21ZM446.372 497.944C442.964 499.426 438.309 500.858 432.373 502.228L433.047 505.152C439.071 503.762 443.923 502.28 447.568 500.696L446.372 497.944ZM432.373 502.228C426.509 503.582 420.412 504.26 414.08 504.26V507.26C420.628 507.26 426.951 506.558 433.047 505.152L432.373 502.228ZM414.08 504.26C401.592 504.26 392.004 502.809 385.213 500.004L384.067 502.776C391.382 505.798 401.421 507.26 414.08 507.26V504.26ZM385.223 500.008C378.643 497.23 373.945 492.806 371.044 486.715L368.336 488.005C371.569 494.794 376.837 499.723 384.057 502.772L385.223 500.008ZM371.062 486.754C368.243 480.374 366.426 471.973 365.666 461.492L362.674 461.708C363.448 472.387 365.31 481.16 368.318 487.966L371.062 486.754ZM365.667 461.513C365.056 450.972 364.75 438.046 364.75 422.73H361.75C361.75 438.081 362.057 451.068 362.673 461.687L365.667 461.513ZM364.75 422.73C364.75 407.414 365.056 394.488 365.667 383.947L362.673 383.773C362.057 394.392 361.75 407.379 361.75 422.73H364.75ZM365.666 383.967C366.426 373.328 368.244 364.935 371.057 358.718L368.323 357.482C365.309 364.145 363.447 372.926 362.674 383.753L365.666 383.967ZM371.05 358.733C373.955 352.488 378.655 347.995 385.223 345.222L384.057 342.458C376.825 345.511 371.559 350.526 368.33 357.467L371.05 358.733ZM385.238 345.216C392.02 342.267 401.598 340.74 414.08 340.74V337.74C401.415 337.74 391.366 339.28 384.042 342.464L385.238 345.216ZM571.519 342H573.019V340.5H571.519V342ZM571.519 503V504.5H573.019V503H571.519ZM551.739 503H550.239V504.5H551.739V503ZM551.739 430.32H553.239V428.82H551.739V430.32ZM496.539 430.32V428.82H495.039V430.32H496.539ZM496.539 503V504.5H498.039V503H496.539ZM476.759 503H475.259V504.5H476.759V503ZM476.759 342V340.5H475.259V342H476.759ZM496.539 342H498.039V340.5H496.539V342ZM496.539 414.22H495.039V415.72H496.539V414.22ZM551.739 414.22V415.72H553.239V414.22H551.739ZM551.739 342V340.5H550.239V342H551.739ZM570.019 342V503H573.019V342H570.019ZM571.519 501.5H551.739V504.5H571.519V501.5ZM553.239 503V430.32H550.239V503H553.239ZM551.739 428.82H496.539V431.82H551.739V428.82ZM495.039 430.32V503H498.039V430.32H495.039ZM496.539 501.5H476.759V504.5H496.539V501.5ZM478.259 503V342H475.259V503H478.259ZM476.759 343.5H496.539V340.5H476.759V343.5ZM495.039 342V414.22H498.039V342H495.039ZM496.539 415.72H551.739V412.72H496.539V415.72ZM553.239 414.22V342H550.239V414.22H553.239ZM551.739 343.5H571.519V340.5H551.739V343.5ZM632.652 342H634.152V340.5H632.652V342ZM632.652 503V504.5H634.152V503H632.652ZM612.872 503H611.372V504.5H612.872V503ZM612.872 342V340.5H611.372V342H612.872ZM631.152 342V503H634.152V342H631.152ZM632.652 501.5H612.872V504.5H632.652V501.5ZM614.372 503V342H611.372V503H614.372ZM612.872 343.5H632.652V340.5H612.872V343.5ZM673.966 342V340.5H672.466V342H673.966ZM738.136 347.06L737.511 348.424L737.528 348.431L737.545 348.439L738.136 347.06ZM754.466 363.39L753.093 363.994L753.1 364.011L753.108 364.027L754.466 363.39ZM754.466 424.57L753.103 423.943L753.098 423.954L753.093 423.966L754.466 424.57ZM738.136 441.13L738.737 442.504L738.743 442.501L738.75 442.498L738.136 441.13ZM693.746 445.96V444.46H692.246V445.96H693.746ZM693.746 503V504.5H695.246V503H693.746ZM673.966 503H672.466V504.5H673.966V503ZM739.056 376.27L737.561 376.395L737.563 376.425L737.567 376.456L739.056 376.27ZM735.836 366.84L734.588 367.672L734.599 367.689L734.61 367.705L735.836 366.84ZM726.636 360.63L726.115 362.037L726.145 362.048L726.177 362.058L726.636 360.63ZM693.746 358.33V356.83H692.246V358.33H693.746ZM693.746 429.63H692.246V431.13H693.746V429.63ZM726.636 427.56L727.11 428.983L727.125 428.978L727.14 428.973L726.636 427.56ZM735.836 421.35L737.061 422.215L737.073 422.199L737.084 422.182L735.836 421.35ZM739.056 411.69L737.567 411.504L737.563 411.535L737.561 411.565L739.056 411.69ZM673.966 343.5H708.696V340.5H673.966V343.5ZM708.696 343.5C720.847 343.5 730.421 345.174 737.511 348.424L738.761 345.696C731.13 342.199 721.077 340.5 708.696 340.5V343.5ZM737.545 348.439C744.699 351.505 749.868 356.666 753.093 363.994L755.839 362.786C752.316 354.781 746.599 349.055 738.727 345.681L737.545 348.439ZM753.108 364.027C756.503 371.262 758.256 381.211 758.256 393.98H761.256C761.256 380.989 759.481 370.545 755.823 362.753L753.108 364.027ZM758.256 393.98C758.256 406.59 756.505 416.547 753.103 423.943L755.828 425.197C759.48 417.259 761.256 406.823 761.256 393.98H758.256ZM753.093 423.966C749.866 431.299 744.69 436.543 737.521 439.762L738.75 442.498C746.608 438.97 752.319 433.174 755.839 425.174L753.093 423.966ZM737.534 439.756C730.437 442.861 720.854 444.46 708.696 444.46V447.46C721.071 447.46 731.114 445.839 738.737 442.504L737.534 439.756ZM708.696 444.46H693.746V447.46H708.696V444.46ZM692.246 445.96V503H695.246V445.96H692.246ZM693.746 501.5H673.966V504.5H693.746V501.5ZM675.466 503V342H672.466V503H675.466ZM741.246 399.5V388.46H738.246V399.5H741.246ZM741.246 388.46C741.246 383.963 741.013 379.836 740.544 376.084L737.567 376.456C738.018 380.064 738.246 384.064 738.246 388.46H741.246ZM740.55 376.145C740.225 372.242 739.078 368.832 737.061 365.975L734.61 367.705C736.273 370.061 737.273 372.938 737.561 376.395L740.55 376.145ZM737.084 366.008C734.998 362.879 731.596 360.649 727.095 359.202L726.177 362.058C730.262 363.371 732.993 365.281 734.588 367.672L737.084 366.008ZM727.157 359.223C722.77 357.599 716.659 356.83 708.926 356.83V359.83C716.526 359.83 722.221 360.594 726.115 362.037L727.157 359.223ZM708.926 356.83H693.746V359.83H708.926V356.83ZM692.246 358.33V429.63H695.246V358.33H692.246ZM693.746 431.13H708.926V428.13H693.746V431.13ZM708.926 431.13C716.651 431.13 722.743 430.439 727.11 428.983L726.161 426.137C722.248 427.441 716.534 428.13 708.926 428.13V431.13ZM727.14 428.973C731.604 427.378 734.981 425.161 737.061 422.215L734.61 420.485C733.01 422.752 730.253 424.675 726.131 426.147L727.14 428.973ZM737.084 422.182C739.08 419.188 740.225 415.718 740.55 411.815L737.561 411.565C737.273 415.022 736.271 417.992 734.588 420.518L737.084 422.182ZM740.544 411.876C741.013 408.124 741.246 403.997 741.246 399.5H738.246C738.246 403.896 738.018 407.896 737.567 411.504L740.544 411.876ZM843.866 463.9L842.444 464.378L842.787 465.4H843.866V463.9ZM813.506 373.51L814.927 373.032L814.584 372.01H813.506V373.51ZM812.126 373.51V372.01H810.66L810.626 373.475L812.126 373.51ZM809.136 503V504.5H810.601L810.635 503.035L809.136 503ZM790.046 503L788.546 502.955L788.5 504.5H790.046V503ZM794.876 342V340.5H793.42L793.376 341.955L794.876 342ZM820.176 342L821.599 341.527L821.257 340.5H820.176V342ZM853.986 443.66L852.562 444.133L852.904 445.16H853.986V443.66ZM855.366 443.66V445.16H856.447L856.789 444.133L855.366 443.66ZM889.176 342V340.5H888.094L887.752 341.527L889.176 342ZM914.476 342L915.975 341.955L915.931 340.5H914.476V342ZM919.306 503V504.5H920.851L920.805 502.955L919.306 503ZM900.216 503L898.716 503.035L898.75 504.5H900.216V503ZM897.226 373.51L898.725 373.475L898.691 372.01H897.226V373.51ZM895.846 373.51V372.01H894.767L894.424 373.032L895.846 373.51ZM865.486 463.9V465.4H866.564L866.907 464.378L865.486 463.9ZM845.287 463.422L814.927 373.032L812.084 373.988L842.444 464.378L845.287 463.422ZM813.506 372.01H812.126V375.01H813.506V372.01ZM810.626 373.475L807.636 502.965L810.635 503.035L813.625 373.545L810.626 373.475ZM809.136 501.5H790.046V504.5H809.136V501.5ZM791.545 503.045L796.375 342.045L793.376 341.955L788.546 502.955L791.545 503.045ZM794.876 343.5H820.176V340.5H794.876V343.5ZM818.752 342.473L852.562 444.133L855.409 443.187L821.599 341.527L818.752 342.473ZM853.986 445.16H855.366V442.16H853.986V445.16ZM856.789 444.133L890.599 342.473L887.752 341.527L853.942 443.187L856.789 444.133ZM889.176 343.5H914.476V340.5H889.176V343.5ZM912.976 342.045L917.806 503.045L920.805 502.955L915.975 341.955L912.976 342.045ZM919.306 501.5H900.216V504.5H919.306V501.5ZM901.715 502.965L898.725 373.475L895.726 373.545L898.716 503.035L901.715 502.965ZM897.226 372.01H895.846V375.01H897.226V372.01ZM894.424 373.032L864.064 463.422L866.907 464.378L897.267 373.988L894.424 373.032ZM865.486 462.4H843.866V465.4H865.486V462.4ZM1039.27 342V340.5H1037.77V342H1039.27ZM1059.05 342H1060.55V340.5H1059.05V342ZM1058.13 461.6L1059.63 461.687L1058.13 461.6ZM1052.61 487.36L1053.96 488.005L1053.97 487.993L1052.61 487.36ZM1037.66 501.39L1038.24 502.772L1038.24 502.772L1037.66 501.39ZM978.78 501.39L978.197 502.772L978.208 502.776L978.78 501.39ZM963.83 487.36L962.458 487.966L962.467 487.986L962.476 488.005L963.83 487.36ZM958.54 461.6L957.043 461.687L958.54 461.6ZM957.62 342V340.5H956.12V342H957.62ZM977.4 342H978.9V340.5H977.4V342ZM977.86 470.8L976.365 470.925L976.368 470.955L976.372 470.986L977.86 470.8ZM981.31 480.46L980.062 481.292L980.073 481.309L980.085 481.325L981.31 480.46ZM990.28 486.67L989.759 488.077L989.79 488.088L989.821 488.098L990.28 486.67ZM1026.16 486.67L1026.63 488.093L1026.65 488.088L1026.66 488.083L1026.16 486.67ZM1035.36 480.46L1036.59 481.325L1036.6 481.309L1036.61 481.292L1035.36 480.46ZM1038.58 470.8L1037.09 470.614L1037.09 470.645L1037.09 470.675L1038.58 470.8ZM1039.27 343.5H1059.05V340.5H1039.27V343.5ZM1057.55 342V422.73H1060.55V342H1057.55ZM1057.55 422.73C1057.55 438.046 1057.24 450.972 1056.63 461.513L1059.63 461.687C1060.24 451.068 1060.55 438.081 1060.55 422.73H1057.55ZM1056.63 461.513C1056.03 471.983 1054.21 480.365 1051.25 486.727L1053.97 487.993C1057.14 481.168 1059.01 472.377 1059.63 461.687L1056.63 461.513ZM1051.26 486.715C1048.36 492.806 1043.66 497.23 1037.08 500.008L1038.24 502.772C1045.46 499.723 1050.73 494.794 1053.96 488.005L1051.26 486.715ZM1037.08 500.008C1030.45 502.807 1020.87 504.26 1008.22 504.26V507.26C1021.03 507.26 1031.07 505.799 1038.24 502.772L1037.08 500.008ZM1008.22 504.26C995.733 504.26 986.145 502.809 979.353 500.004L978.208 502.776C985.523 505.798 995.561 507.26 1008.22 507.26V504.26ZM979.364 500.008C972.784 497.23 968.085 492.806 965.185 486.715L962.476 488.005C965.709 494.794 970.977 499.723 978.197 502.772L979.364 500.008ZM965.202 486.754C962.387 480.383 960.645 471.99 960.038 461.513L957.043 461.687C957.662 472.37 959.447 481.151 962.458 487.966L965.202 486.754ZM960.038 461.513C959.427 450.972 959.12 438.046 959.12 422.73H956.12C956.12 438.081 956.427 451.068 957.043 461.687L960.038 461.513ZM959.12 422.73V342H956.12V422.73H959.12ZM957.62 343.5H977.4V340.5H957.62V343.5ZM975.9 342V458.61H978.9V342H975.9ZM975.9 458.61C975.9 463.09 976.055 467.196 976.365 470.925L979.355 470.675C979.053 467.044 978.9 463.023 978.9 458.61H975.9ZM976.372 470.986C976.857 474.87 978.078 478.316 980.062 481.292L982.558 479.628C980.862 477.084 979.783 474.09 979.349 470.614L976.372 470.986ZM980.085 481.325C982.155 484.258 985.441 486.477 989.759 488.077L990.801 485.263C986.84 483.796 984.146 481.876 982.536 479.595L980.085 481.325ZM989.821 488.098C994.333 489.548 1000.57 490.24 1008.45 490.24V487.24C1000.69 487.24 994.814 486.552 990.739 485.242L989.821 488.098ZM1008.45 490.24C1016.18 490.24 1022.27 489.549 1026.63 488.093L1025.69 485.247C1021.77 486.551 1016.06 487.24 1008.45 487.24V490.24ZM1026.66 488.083C1031.13 486.488 1034.51 484.271 1036.59 481.325L1034.13 479.595C1032.53 481.862 1029.78 483.785 1025.66 485.257L1026.66 488.083ZM1036.61 481.292C1038.6 478.298 1039.75 474.828 1040.08 470.925L1037.09 470.675C1036.8 474.132 1035.8 477.102 1034.11 479.628L1036.61 481.292ZM1040.07 470.986C1040.54 467.234 1040.77 463.107 1040.77 458.61H1037.77C1037.77 463.006 1037.54 467.006 1037.09 470.614L1040.07 470.986ZM1040.77 458.61V342H1037.77V458.61H1040.77ZM1128.36 342L1129.77 341.512L1129.43 340.5H1128.36V342ZM1174.59 476.32L1173.17 476.808L1173.52 477.82H1174.59V476.32ZM1175.97 476.32V477.82H1177.47V476.32H1175.97ZM1175.97 342V340.5H1174.47V342H1175.97ZM1195.29 342H1196.79V340.5H1195.29V342ZM1195.29 503V504.5H1196.79V503H1195.29ZM1166.31 503L1164.89 503.488L1165.24 504.5H1166.31V503ZM1120.08 368.68L1121.49 368.192L1121.15 367.18H1120.08V368.68ZM1118.7 368.68V367.18H1117.2V368.68H1118.7ZM1118.7 503V504.5H1120.2V503H1118.7ZM1099.38 503H1097.88V504.5H1099.38V503ZM1099.38 342V340.5H1097.88V342H1099.38ZM1126.94 342.488L1173.17 476.808L1176 475.832L1129.77 341.512L1126.94 342.488ZM1174.59 477.82H1175.97V474.82H1174.59V477.82ZM1177.47 476.32V342H1174.47V476.32H1177.47ZM1175.97 343.5H1195.29V340.5H1175.97V343.5ZM1193.79 342V503H1196.79V342H1193.79ZM1195.29 501.5H1166.31V504.5H1195.29V501.5ZM1167.72 502.512L1121.49 368.192L1118.66 369.168L1164.89 503.488L1167.72 502.512ZM1120.08 367.18H1118.7V370.18H1120.08V367.18ZM1117.2 368.68V503H1120.2V368.68H1117.2ZM1118.7 501.5H1099.38V504.5H1118.7V501.5ZM1100.88 503V342H1097.88V503H1100.88ZM1099.38 343.5H1128.36V340.5H1099.38V343.5ZM1256.39 503V504.5H1257.89V503H1256.39ZM1236.61 503H1235.11V504.5H1236.61V503ZM1236.61 342V340.5H1235.11V342H1236.61ZM1256.39 342H1257.89V340.5H1256.39V342ZM1304.69 342V340.5H1303.79L1303.36 341.302L1304.69 342ZM1325.62 342L1326.95 342.698L1328.11 340.5H1325.62V342ZM1283.3 422.5L1281.97 421.802L1281.61 422.502L1281.98 423.201L1283.3 422.5ZM1325.85 503V504.5H1328.34L1327.18 502.299L1325.85 503ZM1304.69 503L1303.36 503.698L1303.79 504.5H1304.69V503ZM1262.37 422.5L1261.04 421.802L1260.68 422.5L1261.04 423.198L1262.37 422.5ZM1256.39 501.5H1236.61V504.5H1256.39V501.5ZM1238.11 503V342H1235.11V503H1238.11ZM1236.61 343.5H1256.39V340.5H1236.61V343.5ZM1254.89 342V503H1257.89V342H1254.89ZM1304.69 343.5H1325.62V340.5H1304.69V343.5ZM1324.29 341.302L1281.97 421.802L1284.63 423.198L1326.95 342.698L1324.29 341.302ZM1281.98 423.201L1324.53 503.701L1327.18 502.299L1284.63 421.799L1281.98 423.201ZM1325.85 501.5H1304.69V504.5H1325.85V501.5ZM1306.02 502.302L1263.7 421.802L1261.04 423.198L1303.36 503.698L1306.02 502.302ZM1263.7 423.198L1306.02 342.698L1303.36 341.302L1261.04 421.802L1263.7 423.198Z" fill="black" mask="url('#path-11-outside-1_11_23')"></path>
<line x1="2024.49" y1="564.098" x2="2017.49" y2="599.098" stroke="black"></line>
</g>
<defs>
<clipPath id="clip0_11_23">
<rect width="2024" height="1012" fill="white"></rect>
</clipPath>
</defs>
</svg>
